# xmcd
#
# Track frame offsets:
#	150
#	16042
#	31677
#	47662
#	62552
#	81042
#	97230
#	110345
#	126452
#	140967
#	156072
#	173097
#	189020
#	221890
#
# Disc length: 4440 seconds
#
# Revision: 16
# Processed by: cddbd v1.5.2PL0 Copyright (c) Steve Scherf et al.
# Submitted via: audiograbber 1.83.01
#
DISCID=ba11560e
DTITLE=Michelle - Rouge
DYEAR=2002
DGENRE=Schlager
TTITLE0=Ich hatte nie den Mut
TTITLE1=Das Hotel in St. Germain
TTITLE2=Unter dem Regenbogen
TTITLE3=Hast du Lust
TTITLE4=Einsam ohne dich
TTITLE5=Wind und Sturm
TTITLE6=Nur an dich gedacht
TTITLE7=Trag' mich heute nacht zu den Sternen
TTITLE8=Ich tanz' auch allein
TTITLE9=Wenn der Regen wieder fällt
TTITLE10=Bringst du mich heute nacht nach Hause?
TTITLE11=Ans Ende der Welt
TTITLE12=Das Lachen eines Kindes
TTITLE13=Cds200.0.4 - 3.0 Build 12b
EXTD=release date: 2002-09-02, monday\nrecord-label:  emi electrola gmbh and co
EXTD=kg\nmichelle-site: YEAR: 2002
EXTT0=
EXTT1=
EXTT2=
EXTT3=
EXTT4=
EXTT5=
EXTT6=
EXTT7=
EXTT8=
EXTT9=
EXTT10=
EXTT11=
EXTT12=
EXTT13=
PLAYORDER=
